<?xml version="1.0" encoding="utf-8"?>
<!-- Generator: Adobe Illustrator 22.0.0, SVG Export Plug-In . SVG Version: 6.00 Build 0)  -->
<svg version="1.1" id="Layer_1" xmlns="http://www.w3.org/2000/svg" xmlns:xlink="http://www.w3.org/1999/xlink" x="0px" y="0px"
	 viewBox="0 0 760.2 706.7" style="enable-background:new 0 0 760.2 706.7;" xml:space="preserve">
<style type="text/css">
	.st0{fill-rule:evenodd;clip-rule:evenodd;fill:#FFFFFF;stroke:#4C3641;stroke-miterlimit:10;}
	.st1{fill:#FFFFFF;stroke:#4C3641;stroke-miterlimit:10;}
	.st2{fill-rule:evenodd;clip-rule:evenodd;fill:none;stroke:#4C3641;stroke-miterlimit:10;}
	.st3{fill-rule:evenodd;clip-rule:evenodd;fill:#9F2C4E;}
	.st4{fill:none;stroke:#4C3641;stroke-miterlimit:10;}
	.st5{fill:#FFFFFF;}
	.st6{font-family:'Amiri-Regular';}
	.st7{font-size:21.939px;}
	.st8{fill:#4C3641;}
	.st9{font-size:16px;}
	.st10{fill:none;stroke:#000000;stroke-linecap:round;stroke-linejoin:round;stroke-miterlimit:10;}
</style>
<path class="st0" d="M6.1,113.2l141-56.2l21.8,64.9l79.3-25.8l39.5-12.9v23.4L135.8,156l0.3,73.9h151.5l-0.2,60.5h-13.3v-36.2H146.7
	v1.7h-20.7v60.2h20.7v35.5h-20.7v60.2h20.7v1.7h104.9v11.1h22.6v-112l13.6,0l5.3,19.3l4.4,18.2l3.3,18.4l2.1,18.6l0.9,18.7l0.6,39.5
	v36.8l-22.2,0.3l-0.5-36.9l-83.7,0.6l0.2,22.2h-8.2l-0.7,0.3l-36.1,14.4l-3.7-11.3L85.7,312.6L36.1,188.5L6.1,113.2"/>
<line class="st1" x1="304.2" y1="482.2" x2="304.2" y2="445.4"/>
<line class="st1" x1="274.2" y1="254.3" x2="274.2" y2="290.5"/>
<polyline class="st2" points="699.6,595.5 381,595.5 371.9,595.4 371.9,365.2 505.3,365.2 505.3,391.4 445.6,391.4 445.6,393.2 
	424.9,393.2 424.9,453.3 445.6,453.3 445.6,488.8 424.9,488.8 424.9,549 445.6,549 445.6,550.7 515.9,550.8 550.5,550.8 
	550.5,561.9 573.1,561.9 573.1,550.7 573.1,436.7 573.1,391.4 531.2,391.4 531.2,346.7 328.8,346.7 316.9,293.5 314.8,282.6 
	313.6,271.6 313.3,260.6 "/>
<polyline class="st2" points="313.3,260.6 313.6,119.1 414.5,118.2 414.5,143.2 359.4,143.2 359.4,144.9 338.6,144.9 338.6,205.1 
	359.4,205.1 359.4,240.6 359.4,300.8 359.4,302.5 464.2,302.5 464.2,313.6 486.8,313.6 486.8,143.2 440.5,143.2 440.5,92.5 
	313.7,92.1 313.7,74.8 479.1,20.9 "/>
<polyline class="st2" points="471.1,0 699.6,595.5 741,706.7 "/>
<line class="st0" x1="531.2" y1="0.2" x2="759.7" y2="595.5"/>
<polygon class="st0" points="282.2,497.5 304.2,497.2 304.2,539.7 282.8,539.9 "/>
<polyline class="st0" points="371.9,595.4 330.2,595.4 330.2,365.2 "/>
<line class="st0" x1="330.2" y1="365.2" x2="371.9" y2="365.2"/>
<polyline class="st0" points="135.8,156 189.6,138.5 193,149.1 214.2,142.2 210.8,131.6 287.7,106.6 287.7,230 136.1,230 135.8,156 
	"/>
<line class="st1" x1="445.6" y1="391.4" x2="445.6" y2="393.2"/>
<line class="st1" x1="445.6" y1="393.2" x2="424.9" y2="393.2"/>
<line class="st1" x1="464.2" y1="313.6" x2="486.8" y2="313.6"/>
<line class="st1" x1="371.9" y1="365.2" x2="371.9" y2="383.7"/>
<line class="st1" x1="197.8" y1="446.2" x2="198.2" y2="483.3"/>
<line class="st1" x1="217.1" y1="446" x2="217.4" y2="483.1"/>
<line class="st1" x1="236.3" y1="445.8" x2="236.7" y2="482.9"/>
<line class="st1" x1="255.6" y1="445.7" x2="256" y2="482.7"/>
<line class="st1" x1="282.8" y1="539.9" x2="304.2" y2="539.7"/>
<line class="st1" x1="274.2" y1="254.3" x2="274.2" y2="290.5"/>
<line class="st1" x1="573.1" y1="391.4" x2="531.2" y2="391.4"/>
<line class="st1" x1="464.2" y1="313.6" x2="486.8" y2="313.6"/>
<line class="st1" x1="445.6" y1="391.4" x2="445.6" y2="393.2"/>
<line class="st1" x1="282.8" y1="539.9" x2="304.2" y2="539.7"/>
<line class="st1" x1="274.2" y1="254.3" x2="274.2" y2="290.5"/>
<line class="st1" x1="330.2" y1="577.3" x2="330.2" y2="576.5"/>
<line class="st1" x1="330.2" y1="365.2" x2="371.9" y2="365.2"/>
<line class="st1" x1="198.2" y1="483.3" x2="281.9" y2="482.5"/>
<line class="st1" x1="445.6" y1="393.2" x2="424.9" y2="393.2"/>
<line class="st1" x1="464.2" y1="313.6" x2="486.8" y2="313.6"/>
<path class="st1" d="M331,539.9"/>
<line class="st1" x1="424.9" y1="393.2" x2="445.6" y2="393.2"/>
<line class="st1" x1="464.2" y1="313.6" x2="486.8" y2="313.6"/>
<circle class="st0" cx="349.4" cy="389.5" r="7.8"/>
<circle class="st0" cx="355.9" cy="423.2" r="7.8"/>
<circle class="st0" cx="358.8" cy="514.6" r="7.8"/>
<circle class="st0" cx="344.6" cy="542.9" r="7.8"/>
<circle class="st0" cx="351" cy="581.9" r="7.8"/>
<line class="st1" x1="199.6" y1="539.9" x2="304.2" y2="539.9"/>
<polyline class="st3" points="445.6,549 424.9,549 424.9,488.8 445.6,488.8 445.6,549 "/>
<polyline class="st3" points="445.6,393.2 445.6,453.3 424.9,453.3 424.9,393.2 445.6,393.2 "/>
<polyline class="st3" points="573.1,550.7 573.1,561.9 550.5,561.9 550.5,550.7 573.1,550.7 "/>
<polyline class="st3" points="445.6,550.7 445.6,391.4 573.1,391.4 573.1,550.7 445.6,550.7 "/>
<polyline class="st3" points="359.4,300.8 338.6,300.8 338.6,240.6 359.4,240.6 359.4,300.8 "/>
<polyline class="st3" points="359.4,144.9 359.4,205.1 338.6,205.1 338.6,144.9 359.4,144.9 "/>
<polyline class="st3" points="486.8,302.5 486.8,313.6 464.2,313.6 464.2,302.5 486.8,302.5 "/>
<polyline class="st3" points="359.4,302.5 359.4,143.2 486.8,143.2 486.8,302.5 359.4,302.5 "/>
<polyline class="st3" points="146.7,411.9 125.9,411.9 125.9,351.7 146.7,351.7 146.7,411.9 "/>
<polyline class="st3" points="146.7,256.1 146.7,316.2 125.9,316.2 125.9,256.1 146.7,256.1 "/>
<polyline class="st3" points="274.2,413.6 274.2,424.8 251.5,424.8 251.5,413.6 274.2,413.6 "/>
<polyline class="st3" points="146.7,254.3 274.2,254.3 274.2,413.6 146.7,413.6 146.7,254.3 "/>
<line class="st1" x1="427.9" y1="118.1" x2="427.9" y2="134.6"/>
<polyline class="st4" points="434.6,128 427.9,134.6 421.2,128 "/>
<line class="st1" x1="297.8" y1="301.5" x2="281.3" y2="301.5"/>
<polyline class="st4" points="288,308.2 281.3,301.5 288,294.9 "/>
<line class="st1" x1="427.9" y1="24.8" x2="427.9" y2="8.3"/>
<polyline class="st4" points="421.2,15 427.9,8.3 434.6,15 "/>
<line class="st1" x1="518.5" y1="365.2" x2="518.5" y2="381.7"/>
<polyline class="st4" points="525.2,375 518.5,381.7 511.9,375 "/>
<g>
	<text transform="matrix(1 0 0 1 158.4151 401.7441)" class="st5 st6 st7">A1</text>
</g>
<g>
	<text transform="matrix(1 0 0 1 371.8692 290.5009)" class="st5 st6 st7">A4</text>
</g>
<text transform="matrix(1 0 0 1 455.9688 663.8434)"><tspan x="0" y="0" class="st8 st6 st9">Migros, Zahnarzt, </tspan><tspan x="0" y="19.2" class="st8 st6 st9">Arzt, Restaurant</tspan></text>
<text transform="matrix(1 0 0 1 21.4688 579.3434)"><tspan x="0" y="0" class="st8 st6 st9">Spar, Beck, Post, </tspan><tspan x="0" y="19.2" class="st8 st6 st9">Raiffeisenbank, </tspan><tspan x="0" y="38.4" class="st8 st6 st9">Restaurant</tspan></text>
<text transform="matrix(1 0 0 1 278.1975 24.804)" class="st8 st6 st9">Wittenbach Bahnhof</text>
<text transform="matrix(0 -1 1 0 196.2617 692.1357)" class="st8 st6 st9">Adlerstrasse</text>
<text transform="matrix(1 0 0 1 340.3272 335.4648)" class="st8 st6 st9">Adlerweg</text>
<text transform="matrix(0.3544 0.9351 -0.9351 0.3544 578.5631 223.2071)" class="st8 st6 st9">Oedenhofstrasse</text>
<g>
	<text transform="matrix(1 0 0 1 455.9688 539.6581)" class="st5 st6 st7">A2</text>
</g>
<path class="st10" d="M0,514"/>
<path class="st4" d="M0,514c0,0,37.4,0.6,59.4,0.6s69.6,7.8,88.3,23s21.8,36.2,21.8,84.7c0,48.4,0,84.4,0,84.4"/>
<path class="st4" d="M0,477c0,0,67.4-2.1,99.2,3.9s81.9,12.4,101.5,61.7c7.7,19.3,7.6,42.4,7.4,53.1c-0.4,23.6,0,111,0,111"/>
</svg>
