<?xml version="1.0" encoding="utf-8"?>
<!-- Generator: Adobe Illustrator 22.0.0, SVG Export Plug-In . SVG Version: 6.00 Build 0)  -->
<svg version="1.1" id="Layer_1" xmlns="http://www.w3.org/2000/svg" xmlns:xlink="http://www.w3.org/1999/xlink" x="0px" y="0px"
	 viewBox="0 0 283 143.8" style="enable-background:new 0 0 283 143.8;" xml:space="preserve">
<style type="text/css">
	.st0{fill:none;stroke:#A52B4D;stroke-width:3;stroke-miterlimit:10;}
</style>
<path class="st0" d="M141.5,91.7c-23,39.5,0,50.4,0,50.4S164.5,131.2,141.5,91.7"/>
<path class="st0" d="M141.5,91.7c-45.6-0.2-43.7,25.2-43.7,25.2S118.7,131.4,141.5,91.7"/>
<path class="st0" d="M141.5,91.7c22.7,39.7,43.7,25.2,43.7,25.2S187.1,91.6,141.5,91.7"/>
<path class="st0" d="M141.5,91.7c0,0,46.8,0,70,0c35,0,35-28,35-28"/>
<path class="st0" d="M141.7,2.1c0,0-38.1,37.1-0.3,58.8C179.2,39.2,141.7,2.1,141.7,2.1z"/>
<path class="st0" d="M141.5,60.9L141.5,60.9c0,0,35-25.2,70-25.2c23.2,0,70,0,70,0s0,28-35,28h-35c0,0-11.8,0-35,0
	c-35,0-35,28-35,28s11.8,0,35,0c35,0,35-28,35-28"/>
<path class="st0" d="M36.5,63.7c0,0,0,28,35,28c23.2,0,70,0,70,0"/>
<path class="st0" d="M71.5,63.7c0,0,0,28,35,28c23.2,0,35,0,35,0s0-28-35-28C83.3,63.7,71.5,63.7,71.5,63.7h-35c-35,0-35-28-35-28
	s46.8,0,70,0c35,0,70,25.2,70,25.2l0,0"/>
</svg>
