<?xml version="1.0" encoding="utf-8"?>
<!-- Generator: Adobe Illustrator 22.0.0, SVG Export Plug-In . SVG Version: 6.00 Build 0)  -->
<svg version="1.1" id="Layer_1" xmlns="http://www.w3.org/2000/svg" xmlns:xlink="http://www.w3.org/1999/xlink" x="0px" y="0px"
	 viewBox="0 0 102 52" style="enable-background:new 0 0 102 52;" xml:space="preserve">
<style type="text/css">
	.st0{fill:#A52B4D;}
</style>
<path class="st0" d="M76,12.4c-7.4,0-14.6,3-19.5,5.6c0.6-1.1,1-2.2,1.2-3.4c0.9-6.9-5.8-13.6-6.1-13.9l-0.5-0.5l-0.5,0.5
	c-0.3,0.3-7.1,7-6.2,14c0.2,1.2,0.5,2.3,1.1,3.4c-4.9-2.6-12.1-5.5-19.4-5.5H0.2v0.8c0,0.1,0.2,10.4,12.6,10.7
	c0.3,2.4,2.1,10,13.2,10h12.5h2.8c-1.8,0.7-3.3,1.6-4.4,2.8c-2.4,2.6-2.2,5.3-2.2,5.5l0,0.4l0.3,0.2c0.1,0.1,1.6,1.1,3.9,1.1
	c0.6,0,1.2-0.1,1.9-0.2c2.3-0.5,4.5-1.9,6.6-4.1c-0.9,2.9-1,5.5-0.3,7.7c1,3.4,3.5,4.6,3.6,4.6l0.3,0.2l0.3-0.2
	c0.1-0.1,2.6-1.3,3.6-4.6c0.7-2.2,0.6-4.8-0.3-7.7c2.1,2.2,4.3,3.6,6.5,4.1c0.7,0.2,1.3,0.2,1.9,0.2c2.3,0,3.8-1,3.9-1.1l0.3-0.2
	l0-0.4c0-0.1,0.2-2.9-2.2-5.4c-1.1-1.2-2.6-2.2-4.5-2.9h2.8H76c11.1,0,12.9-7.6,13.2-10c12.4-0.4,12.6-10.6,12.6-10.7v-0.8H76z
	 M45.8,14.3c-0.7-5.1,3.7-10.4,5.3-12.1c1.5,1.7,5.8,7,5.1,12.1c-0.3,2.3-1.6,4.4-3.9,6.1c-0.5,0.3-0.9,0.6-1.2,0.8
	c-0.3-0.2-0.9-0.6-1.5-1C47.3,18.5,46.1,16.6,45.8,14.3z M26,32.4c-9.7,0-11.4-6.3-11.7-8.5h11c0.2,1.8,1.3,6.2,6,8.5H26z
	 M26.8,23.9h11.7c9.7,0,11.4,6.3,11.7,8.5H38.5C28.8,32.4,27.1,26.1,26.8,23.9z M40.5,42.1c-2.1,0.5-3.7-0.1-4.3-0.4
	c0-0.7,0.3-2.4,1.8-4c2.2-2.3,6.2-3.7,11.7-3.8C46.8,38.5,43.6,41.4,40.5,42.1z M53.5,46.7c-0.6,2.1-1.9,3.2-2.5,3.6
	c-0.6-0.4-1.9-1.5-2.5-3.5c-1-3.1-0.1-7.2,2.5-12.1C53.6,39.5,54.5,43.6,53.5,46.7z M65.8,41.7c-0.6,0.3-2.2,0.9-4.3,0.4
	c-3.1-0.7-6.3-3.5-9.2-8.2c5.5,0.2,9.5,1.5,11.7,3.8C65.5,39.3,65.8,41,65.8,41.7z M51.8,32.4c0.3-2.2,2-8.5,11.7-8.5h11.7
	c-0.3,2.2-2,8.5-11.7,8.5H51.8z M76,32.4h-5.3c4.7-2.3,5.7-6.7,6-8.5h11C87.4,26.1,85.7,32.4,76,32.4z M88.5,22.4h-25
	c-8.2,0-11.3,4.1-12.5,7.3c-1.2-3.1-4.3-7.3-12.5-7.3h-25c-9.7,0-11.4-6.3-11.7-8.5H26c9.3,0,18.8,5.2,22.7,7.6
	c0.6,0.4,1.2,0.9,1.9,1.3L51,23l0.4-0.2c0,0,0.1,0,0.1-0.1l0,0c0,0,0.1-0.1,0.3-0.2c0.4-0.2,0.8-0.5,1.2-0.8
	c3.6-2.3,13.4-7.9,23.1-7.9h24.2C99.9,16.1,98.3,22.4,88.5,22.4z"/>
</svg>
