<?xml version="1.0" encoding="utf-8"?>
<!-- Generator: Adobe Illustrator 22.0.0, SVG Export Plug-In . SVG Version: 6.00 Build 0)  -->
<svg version="1.1" id="Layer_1" xmlns="http://www.w3.org/2000/svg" xmlns:xlink="http://www.w3.org/1999/xlink" x="0px" y="0px"
	 viewBox="0 0 26 26" style="enable-background:new 0 0 26 26;" xml:space="preserve">
<style type="text/css">
	.st0{fill:none;stroke:#A52B4D;stroke-width:1.9717;stroke-miterlimit:10;}
</style>
<g>
	<path class="st0" d="M4.8,1c-1,0-2,1-2.8,1.9C1.9,3,1.7,3.2,1.5,3.4C0.8,4.1,0.8,6.2,1.7,8.7c1.1,3,3.4,6.3,6.3,9.2
		c3,3,6.2,5.2,9.2,6.3c2.4,0.9,4.5,1,5.3,0.2c0.2-0.2,0.3-0.3,0.5-0.5c0.9-0.8,1.9-1.8,1.9-2.9c0-0.7-0.6-1.5-1.6-2.3
		c-3-2.4-3.9-1.6-5.3-0.2l-0.3,0.3c-0.7,0.7-1.8,0.5-3.3-0.4c-1-0.7-2.3-1.8-3.8-3.2c-3.7-3.7-4.8-5.9-3.7-7l0.3-0.3
		c1.4-1.4,2.3-2.3-0.1-5.3C6.4,1.6,5.6,1,4.8,1C4.9,1,4.8,1,4.8,1z"/>
</g>
</svg>
