<?xml version="1.0" encoding="utf-8"?>
<!-- Generator: Adobe Illustrator 22.0.0, SVG Export Plug-In . SVG Version: 6.00 Build 0)  -->
<svg version="1.1" id="Layer_1" xmlns="http://www.w3.org/2000/svg" xmlns:xlink="http://www.w3.org/1999/xlink" x="0px" y="0px"
	 viewBox="0 0 102 54" style="enable-background:new 0 0 102 54;" xml:space="preserve">
<style type="text/css">
	.st0{fill:#A52B4D;}
</style>
<path class="st0" d="M51,53.1l-0.4-0.2c-0.1-0.1-2.7-1.3-3.8-4.8c-1.2-3.9-0.1-8.8,3.3-14.6L51,32l0.9,1.5
	c3.4,5.8,4.5,10.8,3.3,14.6c-1.1,3.5-3.6,4.7-3.8,4.8L51,53.1z M51,36.1c-2.4,4.6-3.2,8.5-2.3,11.5c0.6,1.8,1.7,2.8,2.3,3.3
	c0.6-0.4,1.7-1.5,2.3-3.3C54.2,44.6,53.4,40.6,51,36.1z"/>
<path class="st0" d="M38.9,44.9c-2.4,0-4-1-4-1.1l-0.4-0.3V43c0-0.1-0.2-3,2.3-5.6c2.7-3,7.6-4.4,14.3-4.4h1.7l-0.9,1.5
	c-3.4,5.9-7.1,9.3-11,10.2C40.1,44.8,39.5,44.9,38.9,44.9z M36.4,42.4c0.7,0.3,2.1,0.8,4,0.3c3-0.7,6-3.3,8.7-7.7
	c-5.1,0.2-8.9,1.5-11,3.7C36.8,40.2,36.5,41.7,36.4,42.4z"/>
<path class="st0" d="M63.1,44.9c-0.6,0-1.3-0.1-2-0.2c-3.9-0.9-7.6-4.3-11-10.2L49.3,33H51c6.8,0,11.6,1.5,14.3,4.4
	c2.5,2.7,2.3,5.5,2.3,5.6v0.5l-0.4,0.3C67.1,43.9,65.5,44.9,63.1,44.9z M52.8,35c2.8,4.3,5.8,7,8.7,7.7c1.9,0.5,3.4,0,4-0.3
	c-0.1-0.8-0.4-2.2-1.8-3.7C61.7,36.5,57.9,35.3,52.8,35z"/>
<path class="st0" d="M76,35H51v-2h25c11.3,0,11.5-8.6,11.5-9h2C89.5,24.1,89.3,35,76,35z"/>
<path class="st0" d="M51,24.2l-0.5-0.3c-3.8-2.2-6-5-6.4-8.4c-0.9-7.1,6-13.9,6.3-14.2l0.7-0.7l0.7,0.7c0.3,0.3,7.1,7.1,6.1,14.1
	c-0.4,3.4-2.6,6.3-6.4,8.5L51,24.2z M51.1,3.5c-1.7,1.9-5.6,6.9-5,11.7c0.3,2.6,2,4.8,4.9,6.6c2.9-1.8,4.6-4.1,4.9-6.7
	C56.5,10.3,52.7,5.3,51.1,3.5z"/>
<path class="st0" d="M63.5,35H50v-1c0-0.1,0.2-11,13.5-11h25c9.2,0,11-5.6,11.4-8H76c-12,0-24.3,8.7-24.4,8.8l-1.2-1.6
	C50.9,21.8,63.3,13,76,13h26v1c0,0.1-0.2,11-13.5,11H76.9C76.5,27.7,74.4,35,63.5,35z M52.1,33h11.4c9.1,0,11-5.6,11.4-8H63.5
	C54.3,25,52.5,30.6,52.1,33z"/>
<path class="st0" d="M51,35H26c-13.3,0-13.5-10.9-13.5-11h2h-1h1c0,0.4,0.2,9,11.5,9h25V35z"/>
<path class="st0" d="M52,35H38.5c-10.9,0-13-7.3-13.4-10H13.5c-6.9,0-10.2-3-11.8-5.5C0,16.8,0,14.1,0,14v-1h26
	c12.7,0,25.1,8.8,25.6,9.2l-1.2,1.6C50.3,23.7,38,15,26,15H2.1c0.4,2.4,2.2,8,11.4,8h25C51.8,23,52,33.9,52,34V35z M27.1,25
	c0.4,2.4,2.3,8,11.4,8h11.4c-0.4-2.4-2.3-8-11.4-8H27.1z"/>
</svg>
