<?xml version="1.0" encoding="utf-8"?>
<!-- Generator: Adobe Illustrator 22.0.0, SVG Export Plug-In . SVG Version: 6.00 Build 0)  -->
<svg version="1.1" id="Layer_1" xmlns="http://www.w3.org/2000/svg" xmlns:xlink="http://www.w3.org/1999/xlink" x="0px" y="0px"
	 viewBox="0 0 303 153.8" style="enable-background:new 0 0 303 153.8;" xml:space="preserve">
<style type="text/css">
	.st0{fill:none;stroke:#FFFFFF;stroke-width:2;stroke-miterlimit:10;}
</style>
<path class="st0" d="M151.5,98.1c-24.6,42.3,0,54,0,54S176.1,140.4,151.5,98.1"/>
<path class="st0" d="M151.5,98.1c-48.9-0.2-46.8,27-46.8,27S127.1,140.6,151.5,98.1"/>
<path class="st0" d="M151.5,98.1c24.3,42.5,46.8,27,46.8,27S200.4,98,151.5,98.1"/>
<path class="st0" d="M151.5,98.1c0,0,50.1,0,75,0c37.5,0,37.5-30,37.5-30"/>
<path class="st0" d="M151.7,2.1c0,0-40.8,39.8-0.3,63C191.9,41.9,151.7,2.1,151.7,2.1z"/>
<path class="st0" d="M151.5,65.1L151.5,65.1c0,0,37.5-27,75-27c24.9,0,75,0,75,0s0,30-37.5,30h-37.5c0,0-12.6,0-37.5,0
	c-37.5,0-37.5,30-37.5,30s12.6,0,37.5,0c37.5,0,37.5-30,37.5-30"/>
<path class="st0" d="M39,68.1c0,0,0,30,37.5,30c24.9,0,75,0,75,0"/>
<path class="st0" d="M76.5,68.1c0,0,0,30,37.5,30c24.9,0,37.5,0,37.5,0s0-30-37.5-30C89.1,68.1,76.5,68.1,76.5,68.1H39
	c-37.5,0-37.5-30-37.5-30s50.1,0,75,0c37.5,0,75,27,75,27l0,0"/>
</svg>
