<?xml version="1.0" encoding="utf-8"?>
<!-- Generator: Adobe Illustrator 22.0.0, SVG Export Plug-In . SVG Version: 6.00 Build 0)  -->
<svg version="1.1" id="Layer_1" xmlns="http://www.w3.org/2000/svg" xmlns:xlink="http://www.w3.org/1999/xlink" x="0px" y="0px"
	 viewBox="0 0 341 264" style="enable-background:new 0 0 341 264;" xml:space="preserve">
<style type="text/css">
	.st0{fill:#FFFFFF;stroke:#4C3641;stroke-miterlimit:10;}
	.st1{fill:none;stroke:#4C3641;stroke-miterlimit:10;}
	.st2{fill:#A62B4D;stroke:#4C3641;stroke-miterlimit:10;}
	.st3{fill:#4C3641;}
</style>
<rect x="223.5" y="207.5" class="st0" width="117.1" height="17.3"/>
<polygon class="st0" points="223.5,120.9 223.5,129.2 216,129.2 216,138.2 223.5,138.2 227,138.2 340.6,138.2 340.6,120.9 "/>
<line class="st1" x1="216" y1="120.9" x2="340.6" y2="120.9"/>
<line class="st1" x1="216" y1="135.6" x2="340.6" y2="135.6"/>
<polygon class="st0" points="223.5,138.2 223.5,146.5 216,146.5 216,155.5 223.5,155.5 227,155.5 340.6,155.5 340.6,138.2 "/>
<line class="st1" x1="216" y1="153" x2="340.6" y2="153"/>
<polygon class="st0" points="223.5,155.5 223.5,163.8 216,163.8 216,172.9 223.5,172.9 227,172.9 340.6,172.9 340.6,155.5 "/>
<line class="st1" x1="216" y1="170.3" x2="340.6" y2="170.3"/>
<polygon class="st0" points="223.5,172.9 223.5,181.2 216,181.2 216,190.2 223.5,190.2 227,190.2 340.6,190.2 340.6,172.9 "/>
<line class="st1" x1="216" y1="187.7" x2="340.6" y2="187.7"/>
<polygon class="st0" points="223.5,190.2 223.5,198.5 216,198.5 216,207.5 223.5,207.5 227,207.5 340.6,207.5 340.6,190.2 "/>
<line class="st1" x1="216" y1="205" x2="340.6" y2="205"/>
<line class="st1" x1="216" y1="224.9" x2="340.6" y2="224.9"/>
<rect x="161.2" y="87.1" class="st0" width="117.1" height="17.3"/>
<polygon class="st0" points="161.2,0.4 161.2,8.7 153.7,8.7 153.7,17.8 161.2,17.8 164.7,17.8 278.3,17.8 278.3,0.4 "/>
<line class="st1" x1="153.7" y1="0.4" x2="278.3" y2="0.4"/>
<line class="st1" x1="153.7" y1="15.2" x2="278.3" y2="15.2"/>
<polygon class="st0" points="161.2,17.8 161.2,26.1 153.7,26.1 153.7,35.1 161.2,35.1 164.7,35.1 278.3,35.1 278.3,17.8 "/>
<line class="st1" x1="153.7" y1="32.6" x2="278.3" y2="32.6"/>
<polygon class="st0" points="161.2,35.1 161.2,43.4 153.7,43.4 153.7,52.4 161.2,52.4 164.7,52.4 278.3,52.4 278.3,35.1 "/>
<line class="st1" x1="153.7" y1="49.9" x2="278.3" y2="49.9"/>
<polygon class="st0" points="161.2,52.4 161.2,60.7 153.7,60.7 153.7,69.8 161.2,69.8 164.7,69.8 278.3,69.8 278.3,52.4 "/>
<line class="st1" x1="153.7" y1="67.2" x2="278.3" y2="67.2"/>
<polygon class="st0" points="161.2,69.8 161.2,78.1 153.7,78.1 153.7,87.1 161.2,87.1 164.7,87.1 278.3,87.1 278.3,69.8 "/>
<line class="st1" x1="153.7" y1="84.6" x2="278.3" y2="84.6"/>
<line class="st1" x1="153.7" y1="104.5" x2="278.3" y2="104.5"/>
<rect x="7.9" y="139.1" class="st2" width="117.1" height="17.3"/>
<line class="st1" x1="0.4" y1="69.8" x2="125" y2="69.8"/>
<polygon class="st0" points="7.9,69.8 7.9,78.1 0.4,78.1 0.4,87.1 7.9,87.1 11.5,87.1 125,87.1 125,69.8 "/>
<line class="st1" x1="0.4" y1="84.6" x2="125" y2="84.6"/>
<polygon class="st0" points="7.9,87.1 7.9,95.4 0.4,95.4 0.4,104.5 7.9,104.5 11.5,104.5 125,104.5 125,87.1 "/>
<line class="st1" x1="0.4" y1="101.9" x2="125" y2="101.9"/>
<polygon class="st0" points="7.9,104.5 7.9,112.8 0.4,112.8 0.4,121.8 7.9,121.8 11.5,121.8 125,121.8 125,104.5 "/>
<line class="st1" x1="0.4" y1="119.2" x2="125" y2="119.2"/>
<polygon class="st0" points="7.9,121.8 7.9,130.1 0.4,130.1 0.4,139.1 7.9,139.1 11.5,139.1 125,139.1 125,121.8 "/>
<line class="st1" x1="0.4" y1="136.6" x2="125" y2="136.6"/>
<line class="st1" x1="0.4" y1="156.5" x2="125" y2="156.5"/>
<g>
	<path class="st3" d="M225,247.5c1.4-3.5,2.4-6.1,3-7.7c0-0.1,0.1-0.2,0.3-0.3s0.2-0.2,0.3-0.2c0,0,0,0,0.1,0s0,0,0,0l3.2,8.3
		c0.3,0.7,0.4,1,0.4,1c0.1,0.2,0.2,0.3,0.5,0.4s0.4,0.1,0.6,0.1c0,0,0,0.1,0,0.2s0,0.2,0,0.2c-1-0.1-1.6-0.1-1.7-0.1
		c-0.2,0-0.4,0-0.6,0s-0.4,0-0.6,0s-0.4,0-0.6,0c0,0-0.1-0.1-0.1-0.2s0-0.2,0.1-0.2c0.1,0,0.3,0,0.5-0.1s0.3-0.1,0.4-0.1
		c0,0,0.1-0.1,0.1-0.2c0-0.1-0.1-0.5-0.3-1s-0.4-1-0.5-1.4l-0.3-0.7c0,0-0.1-0.1-0.1-0.1c-0.1,0-0.7,0-1.5,0c-0.7,0-1.2,0-1.7,0
		l-0.1,0c-0.3,0.8-0.5,1.4-0.7,1.9c-0.1,0.4-0.2,0.8-0.2,1.1c0,0.1,0,0.2,0.1,0.2s0.2,0.1,0.4,0.1s0.3,0,0.4,0.1s0.2,0,0.2,0
		c0,0,0,0.1,0,0.2s0,0.2,0,0.2c-0.2,0-0.3,0-0.5,0s-0.3,0-0.5,0s-0.3,0-0.5,0c-0.2,0-0.4,0-0.6,0s-0.3,0-0.5,0s-0.4,0-0.6,0
		c0,0,0-0.1,0-0.2s0-0.2,0-0.2c0.1,0,0.3,0,0.5-0.1s0.4-0.1,0.4-0.2C224.4,248.6,224.7,248.1,225,247.5z M228,241.2l-1.4,3.8
		c0,0,0,0.1,0,0.1c0.5,0,1,0,1.4,0c0.4,0,0.8,0,1.3,0c0,0,0,0,0,0c0,0,0,0,0,0v0L228,241.2z"/>
	<path class="st3" d="M240.7,247.3c-0.2,0.6-0.5,1.3-0.8,2.3h-5.4c0,0-0.1,0-0.1-0.1s-0.1-0.1-0.1-0.1c1.7-1.8,2.9-3.3,3.7-4.6
		c0.3-0.4,0.5-0.8,0.6-1.2s0.2-0.7,0.2-1.2c0-0.5-0.2-1-0.5-1.4s-0.7-0.5-1.2-0.5c-0.3,0-0.6,0.1-0.8,0.2s-0.5,0.2-0.7,0.4
		s-0.3,0.3-0.4,0.4s-0.2,0.2-0.3,0.3c-0.1,0-0.1,0-0.2-0.1s-0.1-0.1-0.1-0.2c0-0.1,0.1-0.3,0.3-0.5s0.3-0.4,0.6-0.7s0.5-0.5,0.9-0.6
		s0.7-0.3,1.1-0.3c0.7,0,1.4,0.3,1.9,0.8s0.8,1.1,0.8,1.8c0,0.8-0.3,1.6-0.9,2.4c-0.8,1-1.9,2.3-3.4,3.9h3.1c0.3,0,0.6-0.1,0.8-0.3
		s0.4-0.5,0.6-0.9c0-0.1,0.1-0.1,0.2-0.1C240.6,247.2,240.7,247.2,240.7,247.3z"/>
</g>
<g>
	<g>
		<path class="st3" d="M162.7,128.6c1.4-3.5,2.4-6.1,3-7.7c0-0.1,0.1-0.2,0.3-0.3c0.1-0.1,0.2-0.2,0.3-0.2c0,0,0,0,0.1,0
			c0,0,0,0,0,0l3.2,8.3c0.3,0.7,0.4,1,0.4,1c0.1,0.2,0.2,0.3,0.5,0.4c0.3,0.1,0.4,0.1,0.6,0.1c0,0,0,0.1,0,0.2c0,0.1,0,0.2,0,0.2
			c-1-0.1-1.6-0.1-1.7-0.1c-0.2,0-0.4,0-0.6,0c-0.2,0-0.4,0-0.6,0c-0.2,0-0.4,0-0.6,0c0,0-0.1-0.1-0.1-0.2c0-0.1,0-0.2,0.1-0.2
			c0.1,0,0.3,0,0.5-0.1c0.2,0,0.3-0.1,0.4-0.1c0,0,0.1-0.1,0.1-0.2c0-0.1-0.1-0.5-0.3-1c-0.2-0.5-0.4-1-0.5-1.4l-0.3-0.7
			c0,0-0.1-0.1-0.1-0.1c-0.1,0-0.7,0-1.5,0c-0.7,0-1.2,0-1.7,0l-0.1,0c-0.3,0.8-0.5,1.4-0.7,1.9c-0.1,0.4-0.2,0.8-0.2,1.1
			c0,0.1,0,0.2,0.1,0.2c0.1,0.1,0.2,0.1,0.4,0.1c0.1,0,0.3,0,0.4,0.1c0.1,0,0.2,0,0.2,0c0,0,0,0.1,0,0.2s0,0.2,0,0.2
			c-0.2,0-0.3,0-0.5,0c-0.2,0-0.3,0-0.5,0c-0.2,0-0.3,0-0.5,0c-0.2,0-0.4,0-0.6,0s-0.3,0-0.5,0c-0.2,0-0.4,0-0.6,0c0,0,0-0.1,0-0.2
			c0-0.1,0-0.2,0-0.2c0.1,0,0.3,0,0.5-0.1c0.2-0.1,0.4-0.1,0.4-0.2C162.1,129.8,162.4,129.3,162.7,128.6z M165.7,122.3l-1.4,3.8
			c0,0,0,0.1,0,0.1c0.5,0,1,0,1.4,0c0.4,0,0.8,0,1.3,0c0,0,0,0,0,0c0,0,0,0,0,0v0L165.7,122.3z"/>
		<path class="st3" d="M177.3,120.7c0.1,0,0.1,0,0.2,0.1c0,0.1,0.1,0.1,0.1,0.2v6.2h0.9c0,0,0.1,0.1,0.1,0.2c0,0.1,0.1,0.3,0.1,0.4
			c0,0.1,0,0.2-0.1,0.2h-1.1v2.7c0,0.1-0.3,0.1-0.7,0.1c-0.4,0-0.6,0-0.6-0.1v-2.7h-4.4c-0.1-0.1-0.2-0.2-0.2-0.3l5.1-6.7
			c0.1-0.1,0.1-0.2,0.2-0.3C177.2,120.8,177.3,120.7,177.3,120.7z M176.3,122.6l-3.5,4.6h3.5V122.6z"/>
	</g>
</g>
<g>
	<path class="st3" d="M9.4,180c1.4-3.5,2.4-6.1,3-7.7c0-0.1,0.1-0.2,0.3-0.3c0.1-0.1,0.2-0.2,0.3-0.2c0,0,0,0,0.1,0c0,0,0,0,0,0
		l3.2,8.3c0.3,0.7,0.4,1,0.4,1c0.1,0.2,0.2,0.3,0.5,0.4s0.4,0.1,0.6,0.1c0,0,0,0.1,0,0.2s0,0.2,0,0.2c-1-0.1-1.6-0.1-1.7-0.1
		c-0.2,0-0.4,0-0.6,0c-0.2,0-0.4,0-0.6,0c-0.2,0-0.4,0-0.6,0c0,0-0.1-0.1-0.1-0.2c0-0.1,0-0.2,0.1-0.2c0.1,0,0.3,0,0.5-0.1
		c0.2,0,0.3-0.1,0.4-0.1c0,0,0.1-0.1,0.1-0.2c0-0.1-0.1-0.5-0.3-1c-0.2-0.5-0.4-1-0.5-1.4l-0.3-0.7c0,0-0.1-0.1-0.1-0.1
		c-0.1,0-0.7,0-1.5,0c-0.7,0-1.2,0-1.7,0l-0.1,0c-0.3,0.8-0.5,1.4-0.7,1.9c-0.1,0.4-0.2,0.8-0.2,1.1c0,0.1,0,0.2,0.1,0.2
		c0.1,0.1,0.2,0.1,0.4,0.1c0.1,0,0.3,0,0.4,0.1c0.1,0,0.2,0,0.2,0c0,0,0,0.1,0,0.2s0,0.2,0,0.2c-0.2,0-0.3,0-0.5,0
		c-0.2,0-0.3,0-0.5,0c-0.2,0-0.3,0-0.5,0c-0.2,0-0.4,0-0.6,0s-0.3,0-0.5,0c-0.2,0-0.4,0-0.6,0c0,0,0-0.1,0-0.2s0-0.2,0-0.2
		c0.1,0,0.3,0,0.5-0.1c0.2-0.1,0.4-0.1,0.4-0.2C8.9,181.2,9.1,180.7,9.4,180z M12.5,173.8l-1.4,3.8c0,0,0,0.1,0,0.1c0.5,0,1,0,1.4,0
		c0.4,0,0.8,0,1.3,0c0,0,0,0,0,0c0,0,0,0,0,0v0L12.5,173.8z"/>
	<path class="st3" d="M21.6,180.4v-6.3c0-0.2,0-0.4-0.1-0.5c-0.1-0.1-0.1-0.1-0.2-0.1c-0.2,0-0.5,0.1-1.1,0.3
		c-0.1-0.1-0.2-0.2-0.2-0.3c0-0.1,0-0.1,0-0.1c0.4-0.2,0.8-0.4,1.2-0.6s0.8-0.4,1.1-0.5c0.3-0.1,0.4-0.2,0.4-0.2h0
		c0.1,0,0.1,0.1,0.2,0.2c-0.1,0.4-0.1,0.9-0.1,1.5v6.5c0,0.6,0,1,0.1,1.2c0,0.1,0.2,0.1,0.4,0.2c0.2,0,0.4,0.1,0.6,0.1
		c0,0,0,0.1,0.1,0.2c0,0.1,0,0.2-0.1,0.2c-1.1-0.1-1.6-0.1-1.7-0.1c0,0-0.6,0-1.7,0.1c0,0-0.1-0.1-0.1-0.2c0-0.1,0-0.2,0.1-0.2
		c0.2,0,0.4,0,0.6-0.1c0.2,0,0.4-0.1,0.4-0.2C21.5,181.4,21.6,181,21.6,180.4z"/>
</g>
</svg>
