<?xml version="1.0" encoding="utf-8"?>
<!-- Generator: Adobe Illustrator 22.0.0, SVG Export Plug-In . SVG Version: 6.00 Build 0)  -->
<svg version="1.1" id="Layer_1" xmlns="http://www.w3.org/2000/svg" xmlns:xlink="http://www.w3.org/1999/xlink" x="0px" y="0px"
	 viewBox="0 0 26 20.7" style="enable-background:new 0 0 26 20.7;" xml:space="preserve">
<style type="text/css">
	.st0{fill:#A52B4D;}
</style>
<g>
	<path class="st0" d="M20.7,20.7c-0.6,0-1.4-0.1-2.1-0.2c-3-0.5-6.4-2-9.6-4.2C5.7,14.1,3,11.4,1.5,8.8C0,6.4-0.4,4.3,0.4,3.1
		c0.1-0.1,0.2-0.3,0.3-0.5C1.4,1.6,2.2,0.3,3.6,0l0.1,0c1-0.1,2,0.3,3.1,1.2c3.1,2.7,2.5,4.2,1.2,6L7.8,7.5c0,0-0.6,1,4.2,4.2
		c1.5,1,2.7,1.7,3.7,2.1c0.9,0.4,1.6,0.5,1.7,0.2l0.2-0.3c1.2-1.8,2.4-3,6-1.1c1.3,0.7,2.1,1.5,2.3,2.5c0.3,1.4-0.6,2.6-1.3,3.7
		c-0.1,0.2-0.2,0.3-0.3,0.5C23.7,20.2,22.4,20.7,20.7,20.7z M3.8,1l0.2,1C3.4,2.1,2.9,3,2.4,3.7C2.3,3.9,2.2,4.1,2.1,4.2
		C1.9,4.5,2,5.9,3.2,7.8c1.4,2.3,3.9,4.8,6.9,6.8c3,2,6.1,3.4,8.8,3.9c2.2,0.4,3.5,0,3.7-0.3c0.1-0.2,0.2-0.4,0.4-0.5
		c0.5-0.6,1.1-1.5,1-2c0-0.1-0.2-0.6-1.3-1.1c-2.3-1.2-2.5-0.9-3.4,0.4l-0.2,0.3c-0.5,0.8-1.7,1.5-4.2,0.5c-1.1-0.4-2.5-1.2-4.1-2.3
		c-3.2-2.2-6.3-4.7-4.7-7l0.2-0.3c0.9-1.4,1.1-1.6-0.8-3.3C4.6,2,4.1,2,4,2L3.8,1z"/>
</g>
</svg>
