<?xml version="1.0" encoding="utf-8"?>
<!-- Generator: Adobe Illustrator 22.0.0, SVG Export Plug-In . SVG Version: 6.00 Build 0)  -->
<svg version="1.1" id="Layer_1" xmlns="http://www.w3.org/2000/svg" xmlns:xlink="http://www.w3.org/1999/xlink" x="0px" y="0px"
	 viewBox="0 0 425.5 489.4" style="enable-background:new 0 0 425.5 489.4;" xml:space="preserve">
<style type="text/css">
	.st0{fill:#FFFF61;}
</style>
<g id="Layer_2_1_">
</g>
<polygon class="st0" points="238,173.2 287.8,173.2 321.5,172.7 342.4,172.7 342.4,163.2 425,163.2 425,489.1 356,489.1 356,457.1 
	258.5,457.1 258.5,356.6 323.2,356.6 323.2,312.5 261.4,312.5 261.4,292.6 285.5,292.6 285.5,250.8 238,250.8 "/>
<polygon class="st0" points="60.9,0.2 60.9,5.7 29.9,5.7 29.8,5.2 0.2,5.2 0.2,177.8 29.8,177.8 63.9,175.1 63.9,179.1 179.8,179.1 
	179.8,140.1 240.1,140.1 304.2,135.1 304.8,106.4 425.5,105.8 425.5,0.2 "/>
<polygon class="st0" points="59.6,178.3 59.6,279 25.6,279.1 25.6,279.6 0.2,279.6 0.2,452.3 29.8,452.3 29.8,449.6 60.9,448.5 
	60.9,457 260.8,457 260.8,356.4 323.4,356.4 323.4,313.9 262.4,313.9 262.4,289.3 181.6,288.9 181.6,179.1 "/>
</svg>
