<?xml version="1.0" encoding="utf-8"?>
<!-- Generator: Adobe Illustrator 22.0.0, SVG Export Plug-In . SVG Version: 6.00 Build 0)  -->
<svg version="1.1" id="Layer_1" xmlns="http://www.w3.org/2000/svg" xmlns:xlink="http://www.w3.org/1999/xlink" x="0px" y="0px"
	 viewBox="0 0 342.6 319.9" style="enable-background:new 0 0 342.6 319.9;" xml:space="preserve">
<polygon points="16.1,85 0,85 0,133.5 16.1,133.5 16.1,158 0,158 0,206.5 16.1,206.5 95.8,206.5 95.8,215.4 113.6,215.4 
	113.6,206.5 113.6,85 "/>
<polygon points="179.1,0 163,0 163,48.5 179.1,48.5 179.1,73 163,73 163,121.5 179.1,121.5 258.8,121.5 258.8,130.4 276.6,130.4 
	276.6,121.5 276.6,0 "/>
<polygon points="245.1,189.5 229,189.5 229,238 245.1,238 245.1,262.5 229,262.5 229,311 245.1,311 324.8,311 324.8,319.9 
	342.6,319.9 342.6,311 342.6,189.5 "/>
</svg>
