<?xml version="1.0" encoding="UTF-8"?>
<svg width="265px" height="54px" viewBox="0 0 265 54" version="1.1" xmlns="http://www.w3.org/2000/svg" xmlns:xlink="http://www.w3.org/1999/xlink">
    <!-- Generator: Sketch 40.1 (33804) - http://www.bohemiancoding.com/sketch -->
    <title>minergie_logo</title>
    <desc>Created with Sketch.</desc>
    <defs></defs>
    <g id="Screendesign" stroke="none" stroke-width="1" fill="none" fill-rule="evenodd">
        <g id="Screendesign_0" transform="translate(-150.000000, -56.000000)">
            <g id="minergie_logo" transform="translate(150.000000, 56.000000)">
                <polygon id="Fill-1" fill="#1A171B" points="21.001753 4.03018879 15.5814526 30.3255858 15.4583026 30.3255858 10.0397008 4.03018879 0 4.03018879 0 49.0187883 6.65095146 49.0187883 6.65095146 13.8763579 6.77495081 13.8763579 13.671353 49.0187883 17.3675529 49.0187883 24.2673523 13.8763579 24.3896531 13.8763579 24.3896531 49.0187883 31.0448511 49.0187883 31.0448511 4.03018879"></polygon>
                <polygon id="Fill-2" fill="#1A171B" points="40 48.9877404 47.6353025 48.9877404 47.6353025 4 40 4"></polygon>
                <polygon id="Fill-3" fill="#1A171B" points="57 48.9877404 57 4 64.0807026 4 73.3849005 29.7301078 73.5080505 29.7301078 73.5080505 4 80.4070007 4 80.4070007 48.9877404 73.7535013 48.9877404 64.0229495 20.8839335 63.8981009 20.8839335 63.8981009 48.9877404"></polygon>
                <polygon id="Fill-4" fill="#1A171B" points="89 48.9877404 89 4 109.448002 4 109.448002 10.7310649 96.6353025 10.7310649 96.6353025 22.3194931 106.4941 22.3194931 106.4941 29.0462625 96.6353025 29.0462625 96.6353025 42.2566755 110.310902 42.2566755 110.310902 48.9877404"></polygon>
                <path d="M124.637001,24.1871811 L127.34885,24.1871811 C131.473102,24.1871811 133.012053,22.6313472 133.012053,17.2714092 C133.012053,11.9149076 131.473102,10.3564964 127.34885,10.3564964 L124.637001,10.3564964 L124.637001,24.1871811 L124.637001,24.1871811 Z M124.637001,48.9877404 L117,48.9877404 L117,4 L127.717451,4 C136.275954,4 140.65415,7.67695697 140.65415,17.2714092 C140.65415,24.4998942 137.878603,27.4294324 135.289055,28.6115569 L141.764199,48.9877404 L133.996404,48.9877404 L128.578652,30.3572523 C127.592602,30.4818221 125.992501,30.5411002 124.637001,30.5411002 L124.637001,48.9877404 L124.637001,48.9877404 Z" id="Fill-5" fill="#1A171B"></path>
                <polygon id="Fill-7" fill="#1A171B" points="206.771465 49.0091973 214.40337 49.0091973 214.40337 4.02145691 206.771465 4.02145691"></polygon>
                <polygon id="Fill-9" fill="#1A171B" points="222.838468 49.009455 222.838468 4.02171465 243.289868 4.02171465 243.289868 10.7527796 230.472072 10.7527796 230.472072 22.3412078 240.33087 22.3412078 240.33087 29.0679772 230.472072 29.0679772 230.472072 42.2783901 244.151069 42.2783901 244.151069 49.009455"></polygon>
                <path d="M255.507116,10.270136 L256.955191,10.270136 C258.178198,10.270136 258.604552,9.87752636 258.604552,9.0759841 C258.604552,8.27014633 258.094966,8.00210648 256.871958,8.00210648 L255.507116,8.00210648 L255.507116,10.270136 Z M255.507116,15.2357461 L253.836522,15.2357461 L253.836522,6.68338476 L257.036725,6.68338476 C259.156604,6.68338476 260.317612,7.36121632 260.317612,9.21687684 C260.317612,10.7847382 259.377425,11.4032917 258.280965,11.507243 L260.317612,15.2357461 L258.462717,15.2357461 L256.567056,11.5871395 L255.507116,11.5871395 L255.507116,15.2357461 Z M256.852424,4.93167559 C253.632688,4.93167559 251.105989,7.44369012 251.105989,10.9711633 C251.105989,14.4960592 253.632688,17.0080738 256.852424,17.0080738 C260.032243,17.0080738 262.592065,14.4960592 262.592065,10.9711633 C262.592065,7.44369012 260.032243,4.93167559 256.852424,4.93167559 L256.852424,4.93167559 Z M249.109259,10.9711633 C249.109259,6.33287111 252.757049,3.32429556 256.852424,3.32429556 C260.9478,3.32429556 264.590493,6.33287111 264.590493,10.9711633 C264.590493,15.6283558 260.9478,18.6154538 256.852424,18.6154538 C252.757049,18.6154538 249.109259,15.6283558 249.109259,10.9711633 L249.109259,10.9711633 Z" id="Fill-10" fill="#1A171B"></path>
                <path d="M197.569779,24.461214 L194.604835,24.9165381 L173.615822,28.1209889 L174.516091,34.1407173 L188.347964,32.0238898 C186.277345,34.4036026 182.421475,38.3992864 177.874265,41.0006476 C171.056,44.900112 163.543847,44.336541 159.43828,41.4783083 C153.836227,37.5779848 150.502683,27.5539815 160.325809,15.3590273 C166.622598,7.54205731 178.172373,4.83244929 186.589891,7.55494384 L188.388731,1.79380518 C179.551654,-1.42353217 167.417553,0.158074786 159.012775,6.45357495 C150.179095,13.0703793 145.278573,21.2112308 145.515531,32.6364296 C145.752489,44.0624874 154.58362,51.396642 161.66857,52.7703463 C168.553081,54.1045318 181.486384,53.7480045 193.575471,38.4147503 L195.253709,49.6054142 L201.203979,48.6921886 L197.569779,24.461214 Z" id="Fill-11" fill="#E33137"></path>
            </g>
        </g>
    </g>
</svg>