<?xml version="1.0" encoding="utf-8"?>
<!-- Generator: Adobe Illustrator 22.0.0, SVG Export Plug-In . SVG Version: 6.00 Build 0)  -->
<svg version="1.1" id="Layer_1" xmlns="http://www.w3.org/2000/svg" xmlns:xlink="http://www.w3.org/1999/xlink" x="0px" y="0px"
	 viewBox="0 0 162 70" style="enable-background:new 0 0 162 70;" xml:space="preserve">
<style type="text/css">
	.st0{fill:#C6C6C5;}
	.st1{fill:#6F6F6E;}
	.st2{fill:#FFFFFF;}
	.st3{fill:#E53328;}
	.st4{fill:#1D1D1B;}
</style>
<g>
	<path class="st0" d="M19.4,28.6c0,5.2-1.7,8-4.9,8c-2.4,0-4.3-1-5.5-2.7V22.1c1.2-1.5,2.5-2.6,5.1-2.6
		C17.3,19.5,19.4,22.1,19.4,28.6 M27.8,28.4c0-11.7-5.5-16.7-12.2-16.7c-3,0-5.1,1.3-6.6,2.6v-2H0.8v42.8L9,51v-9.2
		c1.5,1.4,3.9,2.4,6.6,2.4C23.4,44.3,27.8,37.8,27.8,28.4"/>
	<path class="st0" d="M56.7,43.5l-9-21.3l8-10H46L41,18.7c-1.1,1.4-2.5,3.3-3.3,4.6c0.1-1.5,0.1-4.8,0.1-6.7V0l-8.2,4.1v39.3h8.2V34
		l4-4.9l6,14.4H56.7z"/>
	<path class="st1" d="M83.8,43.4V22.8c0-6.9-5-10.8-12.5-10.8c-5,0-8,1.1-11.6,3.1l3.1,5.6c2.8-1.5,4.8-2.1,8.5-2.1
		c2.9,0,4.4,1.8,4.4,3.9v1.5c-1.3-0.6-3.1-1.2-5.9-1.2c-7,0-12.5,3.4-12.5,10.2c0,7.5,5.8,11,11.5,11c2.9,0,5.5-1.2,6.9-2.7v2.1
		H83.8z"/>
	<path class="st2" d="M76.2,34.4c-0.9,1.5-3,2.8-5.6,2.8c-3.5,0-4.7-1.9-4.7-4.1c0-2.5,1.6-3.9,4.7-3.9c2.9,0,4.2,0.4,5.6,1.3V34.4z
		"/>
	<path class="st1" d="M108.2,14.1c-1.1-1.1-3.1-2.2-5.7-2.2c-2.9,0-4.9,1.2-6.3,2.7v-2.1h-8.1v30.8h8.1V26.8c0-5.3,2.1-6.7,5.2-6.7
		c1.8,0,3.4,0.8,4.7,2L108.2,14.1z"/>
	<polygon class="st3" points="55.6,0 49.5,8 69.5,8 75.7,0 	"/>
	<g>
		<path class="st4" d="M33,53.3h-1.8v2.9h-1.6v-8.1h3.6c1.5,0,2.8,0.8,2.8,2.6C35.9,52.5,34.6,53.3,33,53.3z M33,49.6h-1.9v2.1h1.9
			c0.8,0,1.2-0.3,1.2-1.1C34.2,50,33.8,49.6,33,49.6z"/>
		<path class="st4" d="M41.9,53.6h-3.6c0.1,0.8,0.7,1.1,1.3,1.1c0.4,0,0.8-0.2,1-0.4l1.1,1c-0.5,0.6-1.4,1-2.2,1
			c-1.8,0-2.9-1.2-2.9-3.2c0-1.9,1.2-3.2,2.7-3.2c1.6,0,2.6,1.4,2.6,3.2C41.9,53.4,41.9,53.5,41.9,53.6z M39.2,51.4
			c-0.6,0-0.9,0.5-1,1.1h2.1C40.3,51.9,40,51.4,39.2,51.4z"/>
		<path class="st4" d="M46.8,56.2v-3.3c0-1.1-0.4-1.4-1-1.4c-0.7,0-1,0.3-1,1.4v3.3h-1.6v-6.1h1.6v0.4c0.3-0.3,0.8-0.5,1.4-0.5
			c1.6,0,2.3,1.1,2.3,2.8v3.4H46.8z"/>
		<path class="st4" d="M52.3,56.3c-1,0-1.9-0.3-2.6-0.7l0.5-1.2c0.6,0.4,1.3,0.6,2.1,0.6c0.6,0,0.8-0.2,0.8-0.5
			c0-0.3-0.2-0.4-0.9-0.6c-1.5-0.4-2.4-0.8-2.4-2.1c0-1.3,1-1.8,2.4-1.8c0.8,0,1.6,0.2,2.3,0.6l-0.5,1.3c-0.6-0.3-1.3-0.5-1.8-0.5
			c-0.6,0-0.8,0.1-0.8,0.4c0,0.3,0.2,0.4,1.3,0.7c1.1,0.4,2,0.8,2,2C54.8,55.8,53.6,56.3,52.3,56.3z"/>
		<path class="st4" d="M57,49.6c-0.5,0-0.9-0.4-0.9-0.9c0-0.5,0.4-0.9,0.9-0.9c0.5,0,0.9,0.4,0.9,0.9C57.9,49.2,57.5,49.6,57,49.6z
			 M56.2,56.2v-6.1h1.6v6.1H56.2z"/>
		<path class="st4" d="M61.9,56.3c-1.6,0-2.8-1.3-2.8-3.2c0-1.9,1.2-3.2,2.8-3.2c1.6,0,2.8,1.3,2.8,3.2C64.6,55,63.5,56.3,61.9,56.3
			z M61.9,51.5c-0.8,0-1.1,0.7-1.1,1.6c0,0.9,0.4,1.6,1.1,1.6c0.8,0,1.1-0.8,1.1-1.6C63,52.2,62.6,51.5,61.9,51.5z"/>
		<path class="st4" d="M69.6,56.2v-3.3c0-1.1-0.4-1.4-1-1.4c-0.7,0-1,0.3-1,1.4v3.3h-1.6v-6.1h1.6v0.4c0.3-0.3,0.8-0.5,1.4-0.5
			c1.6,0,2.3,1.1,2.3,2.8v3.4H69.6z"/>
		<path class="st4" d="M75,56.3c-1,0-1.9-0.3-2.6-0.7l0.5-1.2c0.6,0.4,1.3,0.6,2.1,0.6c0.6,0,0.8-0.2,0.8-0.5c0-0.3-0.2-0.4-0.9-0.6
			c-1.5-0.4-2.4-0.8-2.4-2.1c0-1.3,1-1.8,2.4-1.8c0.8,0,1.6,0.2,2.3,0.6l-0.5,1.3c-0.6-0.3-1.3-0.5-1.8-0.5c-0.6,0-0.8,0.1-0.8,0.4
			c0,0.3,0.2,0.4,1.3,0.7c1.1,0.4,2,0.8,2,2C77.5,55.8,76.4,56.3,75,56.3z"/>
		<path class="st4" d="M82.4,56.2l-1.2-2.8l-0.8,1v1.8h-1.6v-7.7l1.6-0.8V51c0,0.4,0,1,0,1.3c0.2-0.2,0.4-0.6,0.6-0.9l1-1.3H84
			L82.4,52l1.8,4.2H82.4z"/>
		<path class="st4" d="M88.3,56.2v-0.4c-0.3,0.3-0.8,0.5-1.4,0.5c-1.1,0-2.3-0.7-2.3-2.2c0-1.3,1.1-2,2.5-2c0.6,0,0.9,0.1,1.2,0.2
			v-0.3c0-0.4-0.3-0.8-0.9-0.8c-0.7,0-1.1,0.1-1.7,0.4l-0.6-1.1c0.7-0.4,1.3-0.6,2.3-0.6c1.5,0,2.5,0.8,2.5,2.1v4.1H88.3z
			 M88.3,53.6c-0.3-0.2-0.5-0.3-1.1-0.3c-0.6,0-0.9,0.3-0.9,0.8c0,0.4,0.2,0.8,0.9,0.8c0.5,0,0.9-0.3,1.1-0.6V53.6z"/>
		<path class="st4" d="M93.8,56.3c-1,0-1.9-0.3-2.6-0.7l0.5-1.2c0.6,0.4,1.3,0.6,2.1,0.6c0.6,0,0.8-0.2,0.8-0.5
			c0-0.3-0.2-0.4-0.9-0.6c-1.5-0.4-2.4-0.8-2.4-2.1c0-1.3,1-1.8,2.4-1.8c0.8,0,1.6,0.2,2.3,0.6l-0.5,1.3c-0.6-0.3-1.3-0.5-1.8-0.5
			c-0.6,0-0.8,0.1-0.8,0.4c0,0.3,0.2,0.4,1.3,0.7c1.1,0.4,2,0.8,2,2C96.3,55.8,95.1,56.3,93.8,56.3z"/>
		<path class="st4" d="M99.9,56.3c-1,0-1.9-0.3-2.6-0.7l0.5-1.2c0.6,0.4,1.3,0.6,2.1,0.6c0.6,0,0.8-0.2,0.8-0.5
			c0-0.3-0.2-0.4-0.9-0.6c-1.5-0.4-2.4-0.8-2.4-2.1c0-1.3,1-1.8,2.4-1.8c0.8,0,1.6,0.2,2.3,0.6l-0.5,1.3c-0.6-0.3-1.3-0.5-1.8-0.5
			c-0.6,0-0.8,0.1-0.8,0.4c0,0.3,0.2,0.4,1.3,0.7c1.1,0.4,2,0.8,2,2C102.4,55.8,101.2,56.3,99.9,56.3z"/>
		<path class="st4" d="M108.6,53.6H105c0.1,0.8,0.7,1.1,1.3,1.1c0.4,0,0.8-0.2,1-0.4l1.1,1c-0.5,0.6-1.4,1-2.2,1
			c-1.8,0-2.9-1.2-2.9-3.2c0-1.9,1.2-3.2,2.7-3.2c1.6,0,2.6,1.4,2.6,3.2C108.6,53.4,108.6,53.5,108.6,53.6z M106,51.4
			c-0.6,0-0.9,0.5-1,1.1h2.1C107,51.9,106.7,51.4,106,51.4z"/>
	</g>
	<g>
		<path class="st4" d="M35,67.8L34.4,66h-3l-0.6,1.8h-1.7l3.1-8.1h1.6l3.1,8.1H35z M33.3,62.9c-0.2-0.5-0.3-1-0.4-1.3
			c-0.1,0.3-0.2,0.8-0.4,1.3L32,64.4h1.9L33.3,62.9z"/>
		<path class="st4" d="M41,67.9c-0.5,0-1-0.2-1.3-0.5v1.8L38.1,70v-8.3h1.6v0.4c0.3-0.3,0.7-0.5,1.3-0.5c1.3,0,2.4,1,2.4,3.2
			C43.3,66.6,42.5,67.9,41,67.9z M40.7,63.1c-0.5,0-0.8,0.2-1,0.5v2.3c0.2,0.3,0.6,0.5,1.1,0.5c0.6,0,1-0.5,1-1.6
			C41.7,63.6,41.3,63.1,40.7,63.1z"/>
		<path class="st4" d="M47.5,67.9c-0.5,0-1-0.2-1.3-0.5v1.8L44.6,70v-8.3h1.6v0.4c0.3-0.3,0.7-0.5,1.3-0.5c1.3,0,2.4,1,2.4,3.2
			C49.8,66.6,49,67.9,47.5,67.9z M47.2,63.1c-0.5,0-0.8,0.2-1,0.5v2.3c0.2,0.3,0.6,0.5,1.1,0.5c0.6,0,1-0.5,1-1.6
			C48.2,63.6,47.8,63.1,47.2,63.1z"/>
		<path class="st4" d="M56,65.2h-3.6c0.1,0.8,0.7,1.1,1.3,1.1c0.4,0,0.8-0.2,1-0.4l1.1,1c-0.5,0.6-1.4,1-2.2,1
			c-1.8,0-2.9-1.2-2.9-3.2c0-1.9,1.2-3.2,2.7-3.2c1.6,0,2.6,1.4,2.6,3.2C56.1,65,56,65.1,56,65.2z M53.4,62.9c-0.6,0-0.9,0.5-1,1.1
			h2.1C54.5,63.5,54.1,62.9,53.4,62.9z"/>
		<path class="st4" d="M61,67.8v-3.3c0-1.1-0.4-1.4-1-1.4c-0.7,0-1,0.3-1,1.4v3.3h-1.6v-6.1h1.6v0.4c0.3-0.3,0.8-0.5,1.4-0.5
			c1.6,0,2.2,1.1,2.2,2.8v3.4H61z"/>
		<path class="st4" d="M64,67.8v-1.2l2.2-2.6c0.2-0.3,0.6-0.7,0.8-0.9c-0.2,0-0.7,0-1,0h-1.8v-1.4H69v1.2l-2.1,2.6
			c-0.2,0.3-0.6,0.7-0.8,0.9c0.2,0,0.7,0,1,0H69v1.4H64z"/>
		<path class="st4" d="M75.3,65.2h-3.6c0.1,0.8,0.7,1.1,1.3,1.1c0.4,0,0.8-0.2,1-0.4l1.1,1c-0.5,0.6-1.4,1-2.2,1
			c-1.8,0-2.9-1.2-2.9-3.2c0-1.9,1.2-3.2,2.7-3.2c1.6,0,2.6,1.4,2.6,3.2C75.3,65,75.3,65.1,75.3,65.2z M72.7,62.9
			c-0.6,0-0.9,0.5-1,1.1h2.1C73.7,63.5,73.4,62.9,72.7,62.9z"/>
		<path class="st4" d="M76.6,67.8v-7.7l1.6-0.8v8.5H76.6z"/>
		<path class="st4" d="M79.9,67.8v-7.7l1.6-0.8v8.5H79.9z"/>
		<path class="st4" d="M92.1,67.8L91.5,66h-3l-0.6,1.8h-1.7l3.1-8.1h1.6l3.1,8.1H92.1z M90.4,62.9c-0.2-0.5-0.3-1-0.4-1.3
			c-0.1,0.3-0.2,0.8-0.4,1.3l-0.5,1.5h1.9L90.4,62.9z"/>
		<path class="st4" d="M98.5,67.8v-0.4c-0.3,0.3-0.8,0.5-1.4,0.5c-1.6,0-2.2-1.1-2.2-2.8v-3.4h1.6V65c0,1.1,0.4,1.4,1,1.4
			c0.7,0,1-0.3,1-1.4v-3.3h1.6v6.1H98.5z"/>
		<path class="st4" d="M104,67.9c-1,0-1.9-0.3-2.6-0.7L102,66c0.6,0.4,1.3,0.6,2.1,0.6c0.6,0,0.8-0.2,0.8-0.5c0-0.3-0.2-0.4-0.9-0.6
			c-1.5-0.4-2.4-0.8-2.4-2.1c0-1.3,1-1.8,2.4-1.8c0.8,0,1.6,0.2,2.2,0.6l-0.5,1.3c-0.6-0.3-1.3-0.5-1.8-0.5c-0.6,0-0.8,0.1-0.8,0.4
			c0,0.3,0.2,0.4,1.3,0.7c1.1,0.4,2,0.8,2,2C106.5,67.4,105.3,67.9,104,67.9z"/>
		<path class="st4" d="M110.1,67.9c-1,0-1.9-0.3-2.5-0.7L108,66c0.6,0.4,1.3,0.6,2.1,0.6c0.6,0,0.8-0.2,0.8-0.5
			c0-0.3-0.2-0.4-0.9-0.6c-1.5-0.4-2.4-0.8-2.4-2.1c0-1.3,1-1.8,2.4-1.8c0.8,0,1.6,0.2,2.2,0.6l-0.5,1.3c-0.6-0.3-1.3-0.5-1.8-0.5
			c-0.6,0-0.8,0.1-0.8,0.4c0,0.3,0.2,0.4,1.3,0.7c1.1,0.4,2,0.8,2,2C112.5,67.4,111.4,67.9,110.1,67.9z"/>
		<path class="st4" d="M118.8,65.2h-3.6c0.1,0.8,0.7,1.1,1.3,1.1c0.4,0,0.8-0.2,1-0.4l1.1,1c-0.5,0.6-1.4,1-2.2,1
			c-1.7,0-2.9-1.2-2.9-3.2c0-1.9,1.2-3.2,2.7-3.2c1.6,0,2.6,1.4,2.6,3.2C118.8,65,118.8,65.1,118.8,65.2z M116.2,62.9
			c-0.6,0-0.9,0.5-1,1.1h2.1C117.2,63.5,116.9,62.9,116.2,62.9z"/>
		<path class="st4" d="M123.6,63.5c-0.3-0.2-0.6-0.4-0.9-0.4c-0.6,0-1,0.3-1,1.3v3.3h-1.6v-6.1h1.6v0.4c0.3-0.3,0.7-0.5,1.3-0.5
			c0.5,0,0.9,0.2,1.1,0.4L123.6,63.5z"/>
		<path class="st4" d="M128.6,63.5c-0.3-0.2-0.6-0.4-0.9-0.4c-0.6,0-1,0.3-1,1.3v3.3H125v-6.1h1.6v0.4c0.3-0.3,0.7-0.5,1.3-0.5
			c0.5,0,0.9,0.2,1.1,0.4L128.6,63.5z"/>
		<path class="st4" d="M133.7,67.8v-3.3c0-1.1-0.4-1.4-1-1.4c-0.7,0-1,0.3-1,1.4v3.3H130v-7.7l1.6-0.8v2.8c0.3-0.3,0.8-0.5,1.4-0.5
			c1.6,0,2.2,1.1,2.2,2.8v3.4H133.7z"/>
		<path class="st4" d="M139.2,67.9c-1.6,0-2.7-1.3-2.7-3.2c0-1.9,1.2-3.2,2.7-3.2c1.6,0,2.8,1.3,2.8,3.2
			C142,66.6,140.8,67.9,139.2,67.9z M139.2,63.1c-0.8,0-1.1,0.7-1.1,1.6c0,0.9,0.4,1.6,1.1,1.6c0.8,0,1.1-0.8,1.1-1.6
			C140.3,63.8,140,63.1,139.2,63.1z"/>
		<path class="st4" d="M146.5,67.8v-0.4c-0.3,0.3-0.7,0.5-1.3,0.5c-1.3,0-2.4-1-2.4-3.2c0-1.8,0.9-3.1,2.4-3.1c0.5,0,1,0.2,1.3,0.5
			v-1.9l1.6-0.8v8.5H146.5z M146.5,63.6c-0.2-0.3-0.6-0.5-1.1-0.5c-0.6,0-1,0.5-1,1.6c0,1.3,0.4,1.8,1,1.8c0.5,0,0.8-0.2,1-0.5V63.6
			z"/>
		<path class="st4" d="M154.7,65.2H151c0.1,0.8,0.7,1.1,1.3,1.1c0.4,0,0.8-0.2,1-0.4l1.1,1c-0.5,0.6-1.4,1-2.2,1
			c-1.8,0-2.9-1.2-2.9-3.2c0-1.9,1.2-3.2,2.7-3.2c1.6,0,2.6,1.4,2.6,3.2C154.7,65,154.7,65.1,154.7,65.2z M152,62.9
			c-0.6,0-0.9,0.5-1,1.1h2.1C153.1,63.5,152.7,62.9,152,62.9z"/>
		<path class="st4" d="M159.6,67.8v-3.3c0-1.1-0.4-1.4-1-1.4c-0.7,0-1,0.3-1,1.4v3.3h-1.6v-6.1h1.6v0.4c0.3-0.3,0.8-0.5,1.4-0.5
			c1.6,0,2.2,1.1,2.2,2.8v3.4H159.6z"/>
	</g>
	<polygon class="st3" points="81.8,0 75.7,8 95.7,8 101.8,0 	"/>
	<polygon class="st3" points="108,0 101.8,8 121.9,8 128,0 	"/>
</g>
</svg>
